# xmcd
#
# Track frame offsets:
#	150
#	14070
#	24470
#	35620
#	51462
#	68495
#	86225
#	106502
#	123280
#	133550
#	148612
#
# Disc length: 2187 seconds
#
# Revision: 1
# Processed by: cddbd v1.4PL0 Copyright (c) Steve Scherf et al.
# Submitted via: audiograbber 1.80
#
DISCID=9408890b
DTITLE=Silverbullit - Silverbullit
DYEAR=1900
DGENRE=
TTITLE0=Raw power angel
TTITLE1=Boom boom boogie
TTITLE2=King of the line
TTITLE3=Peter pencilbrain
TTITLE4=Know my rights
TTITLE5=Boots
TTITLE6=Fall in love
TTITLE7=Skinny
TTITLE8=fuck you Mr.
TTITLE9=If you have a doubt
TTITLE10=I had to tell you
EXTD=
EXTT0=
EXTT1=
EXTT2=
EXTT3=
EXTT4=
EXTT5=
EXTT6=
EXTT7=
EXTT8=
EXTT9=
EXTT10=
PLAYORDER=
